<?xml version="1.0" encoding="UTF-8" standalone="no"?>
<!-- Created with Inkscape (http://www.inkscape.org/) -->

<svg
   width="548.21674mm"
   height="209.02083mm"
   viewBox="0 0 548.21673 209.02082"
   version="1.1"
   id="svg1"
   xml:space="preserve"
   inkscape:version="1.4 (e7c3feb, 2024-10-09)"
   sodipodi:docname="uac-logo-black-thick10-1.svg"
   inkscape:export-batch-path="../New logos/SVG"
   inkscape:export-batch-name="uacyields-logo"
   xmlns:inkscape="http://www.inkscape.org/namespaces/inkscape"
   xmlns:sodipodi="http://sodipodi.sourceforge.net/DTD/sodipodi-0.dtd"
   xmlns:xlink="http://www.w3.org/1999/xlink"
   xmlns="http://www.w3.org/2000/svg"
   xmlns:svg="http://www.w3.org/2000/svg"><sodipodi:namedview
     id="namedview1"
     pagecolor="#bdbdbd"
     bordercolor="#000000"
     borderopacity="0.25"
     inkscape:showpageshadow="2"
     inkscape:pageopacity="0.0"
     inkscape:pagecheckerboard="0"
     inkscape:deskcolor="#d1d1d1"
     inkscape:document-units="mm"
     inkscape:zoom="0.30019305"
     inkscape:cx="1037.6656"
     inkscape:cy="394.74599"
     inkscape:window-width="1366"
     inkscape:window-height="707"
     inkscape:window-x="0"
     inkscape:window-y="0"
     inkscape:window-maximized="1"
     inkscape:current-layer="svg1"
     showguides="true"
     inkscape:lockguides="false"
     showgrid="false"><inkscape:page
       x="2.0259391e-05"
       y="1.8251511e-06"
       width="548.21674"
       height="209.02083"
       id="page3"
       margin="0"
       bleed="0" /></sodipodi:namedview><defs
     id="defs1"><linearGradient
       id="linearGradient2"
       inkscape:collect="always"><stop
         style="stop-color:#5406fe;stop-opacity:1;"
         offset="0.05991753"
         id="stop1" /><stop
         style="stop-color:#01f4b5;stop-opacity:1;"
         offset="0.52810282"
         id="stop3" /><stop
         style="stop-color:#01f4b5;stop-opacity:1;"
         offset="0.64433777"
         id="stop4" /><stop
         style="stop-color:#0ff500;stop-opacity:1;"
         offset="1"
         id="stop2" /></linearGradient><linearGradient
       inkscape:collect="always"
       xlink:href="#linearGradient2"
       id="linearGradient4"
       gradientUnits="userSpaceOnUse"
       gradientTransform="translate(439.8141,-493.01111)"
       x1="86.177063"
       y1="98.041313"
       x2="119.25098"
       y2="101.59471" /></defs><g
     inkscape:groupmode="layer"
     id="layer1"
     inkscape:label="Vector"
     style="display:inline;opacity:1"
     transform="translate(-3462.5026,-17.048417)"><g
       id="layer1-4"
       inkscape:label="Imagotipo 2"
       style="display:inline;opacity:1"
       transform="translate(2904.286,17.04842)"
       inkscape:export-filename="../PNG/uac-logo-black-thick10-1.png"
       inkscape:export-xdpi="191.99998"
       inkscape:export-ydpi="191.99998"><rect
         style="display:inline;opacity:1;fill:#000000;fill-opacity:1;stroke:none;stroke-width:2.5;stroke-linecap:round;stroke-linejoin:round;stroke-miterlimit:4;stroke-dasharray:none;stroke-dashoffset:0;stroke-opacity:1;paint-order:stroke fill markers"
         id="rect32-9-1"
         width="548.21667"
         height="209.02083"
         x="558.21661"
         y="0" /><path
         style="fill:none;fill-opacity:1;stroke:#ffffff;stroke-width:4.5;stroke-linecap:round;stroke-linejoin:round;stroke-miterlimit:4;stroke-dasharray:none;stroke-dashoffset:0;stroke-opacity:1;paint-order:stroke fill markers"
         d="m 661.22397,99.050872 -0.33624,72.415438 69.19453,-49.99567 z"
         id="path83"
         sodipodi:nodetypes="cccc" /><path
         style="fill:none;fill-opacity:1;stroke:#ffffff;stroke-width:4.5;stroke-linecap:round;stroke-linejoin:round;stroke-miterlimit:4;stroke-dasharray:none;stroke-dashoffset:0;stroke-opacity:1;paint-order:stroke fill markers"
         d="M 591.95686,121.10789 661.22397,99.050872 703.91586,40.213276"
         id="path84"
         sodipodi:nodetypes="ccc" /><path
         id="path85"
         style="fill:#5406fe;fill-opacity:1;stroke:none;stroke-width:2.5;stroke-linecap:round;stroke-linejoin:round;paint-order:stroke fill markers"
         d="M 634.63415,39.802589 A 16.085651,16.085651 0 0 1 618.73616,56.073716 16.085651,16.085651 0 0 1 602.46497,40.17569 16.085651,16.085651 0 0 1 618.36316,23.904543 16.085651,16.085651 0 0 1 634.63415,39.802589 Z"
         inkscape:transform-center-y="-72.838235" /><path
         id="path86"
         style="fill:#01f4b5;fill-opacity:1;stroke:none;stroke-width:2.5;stroke-linecap:round;stroke-linejoin:round;paint-order:stroke fill markers"
         d="M 720.0004,40.026757 A 16.085651,16.085651 0 0 1 704.10241,56.297884 16.085651,16.085651 0 0 1 687.83122,40.399858 16.085651,16.085651 0 0 1 703.72941,24.12871 16.085651,16.085651 0 0 1 720.0004,40.026757 Z"
         inkscape:transform-center-y="-72.838235" /><path
         id="path87"
         style="fill:#2cf32c;fill-opacity:1;stroke:none;stroke-width:2.5;stroke-linecap:round;stroke-linejoin:round;paint-order:stroke fill markers"
         d="m 746.1668,121.28413 a 16.085651,16.085651 0 0 1 -15.89799,16.27112 16.085651,16.085651 0 0 1 -16.27119,-15.89803 16.085651,16.085651 0 0 1 15.89819,-16.27114 16.085651,16.085651 0 0 1 16.27099,15.89805 z"
         inkscape:transform-center-y="-72.838235" /><path
         id="path88"
         style="fill:#2cf32c;fill-opacity:1;stroke:none;stroke-width:2.5;stroke-linecap:round;stroke-linejoin:round;paint-order:stroke fill markers"
         d="m 676.97237,171.27975 a 16.085651,16.085651 0 0 1 -15.89809,16.27112 16.085651,16.085651 0 0 1 -16.27109,-15.89803 16.085651,16.085651 0 0 1 15.89809,-16.27114 16.085651,16.085651 0 0 1 16.27109,15.89805 z"
         inkscape:transform-center-y="-72.838235" /><path
         id="path89"
         style="fill:#01f4b5;fill-opacity:1;stroke:none;stroke-width:2.5;stroke-linecap:round;stroke-linejoin:round;paint-order:stroke fill markers"
         d="m 608.04141,120.92137 a 16.085651,16.085651 0 0 1 -15.89809,16.27113 16.085651,16.085651 0 0 1 -16.27109,-15.89803 16.085651,16.085651 0 0 1 15.89808,-16.27114 16.085651,16.085651 0 0 1 16.2711,15.89804 z"
         inkscape:transform-center-y="-72.838235" /><circle
         style="display:inline;fill:url(#linearGradient4);fill-opacity:1;stroke:none;stroke-width:2.5;stroke-linecap:round;stroke-linejoin:round;stroke-miterlimit:4;stroke-dasharray:none;stroke-dashoffset:0;stroke-opacity:1;paint-order:stroke fill markers"
         id="circle46-2"
         transform="rotate(44.335572)"
         cy="-392.04572"
         cx="542.30573"
         r="16.085651" /><path
         id="path2-7"
         style="font-weight:900;font-size:83.66px;font-family:Spartan;-inkscape-font-specification:'Spartan, Heavy';display:inline;fill:#ffffff;stroke-width:1.05984;stroke-linecap:round;stroke-linejoin:round;paint-order:stroke fill markers"
         d="m 885.39307,44.87478 -30.72991,74.15 19.3797,0.0377 5.39244,-14.51643 h 29.5832 l 5.39192,14.51643 19.37969,-0.0377 -30.7299,-74.15 h -6.00222 -5.66218 z m 8.83357,18.93218 9.23406,26.36583 h -18.46812 z"
         sodipodi:nodetypes="ccccccccccccccc" /><path
         id="text1-2"
         style="font-weight:900;font-size:83.66px;font-family:Spartan;-inkscape-font-specification:'Spartan, Heavy';display:inline;fill:#ffffff;stroke-width:1.17517;stroke-linecap:round;stroke-linejoin:round;paint-order:stroke fill markers"
         d="m 778.72094,44.808634 v 48.158818 c 0,19.289268 17.03328,28.173988 31.92415,28.173988 14.89087,0 31.92364,-8.88472 31.92364,-28.173988 V 44.808634 h -17.99839 v 42.852165 c 0,1.48472 1.22842,17.304891 -13.92525,17.304891 -15.15367,0 -13.92525,-15.820171 -13.92525,-17.304891 V 44.808634 Z" /><path
         style="font-weight:800;font-size:32.5084px;font-family:Spartan;-inkscape-font-specification:'Spartan Ultra-Bold';letter-spacing:-0.269875px;baseline-shift:baseline;fill:#ffffff;stroke-width:0.411827;stroke-linecap:round;stroke-linejoin:round;paint-order:stroke fill markers"
         d="m 853.98528,172.12935 h 15.39273 v -5.49392 h -9.13486 v -21.32551 h -6.25787 z m 58.29343,0 h 6.74549 l 1.93425,-5.23385 h 10.17513 l 1.918,5.23385 h 6.74549 l -10.84155,-26.81943 h -5.81901 z m 10.80904,-10.72777 2.95827,-7.59071 2.94201,7.59071 z m 69.9541,10.72777 h 10.27265 q 2.6819,0 4.6487,-0.91024 1.983,-0.92649 3.0558,-2.63318 1.089,-1.72294 1.089,-4.11231 0,-2.74696 -1.4629,-4.4374 -1.4628,-1.69043 -4.226,-2.14555 3.3158,-1.77171 3.3158,-5.85151 0,-3.38088 -2.2106,-5.05506 -2.1943,-1.67418 -6.0465,-1.67418 h -8.43595 z m 6.27412,-16.40049 v -5.59144 h 0.65017 q 3.70596,0 3.70596,2.74696 0,2.84448 -3.70596,2.84448 z m 0,11.55674 v -6.16034 h 1.78793 q 2.1618,0 3.2834,0.81271 1.1215,0.81271 1.1215,2.3406 0,3.00703 -4.4049,3.00703 z m 74.89533,5.36388 q 3.1046,0 5.3964,-0.9915 2.2919,-1.00776 3.5434,-2.89325 1.2679,-1.88549 1.2679,-4.53492 0,-2.29184 -0.9753,-3.78723 -0.959,-1.51164 -2.8282,-2.63318 -1.853,-1.12154 -4.5187,-2.25934 -1.7392,-0.73143 -2.6007,-1.21906 -0.8614,-0.50388 -0.8614,-1.5279 0,-1.00776 0.7964,-1.64167 0.8127,-0.63391 2.2431,-0.63391 1.3816,0 2.8282,0.52013 1.4629,0.50388 2.6332,1.30034 l 2.5357,-4.99004 q -0.9915,-0.71519 -2.3569,-1.28408 -1.3654,-0.5689 -2.877,-0.91024 -1.4954,-0.34134 -2.9095,-0.34134 -2.7144,0 -4.7625,1.17031 -2.0318,1.15404 -3.1533,3.02328 -1.1215,1.85298 -1.1215,3.93351 0,2.45439 1.4954,4.12857 1.4953,1.65793 3.7384,2.68194 1.9993,0.91024 3.2834,1.56041 1.3003,0.65016 1.918,1.33284 0.6176,0.68268 0.6176,1.70669 0,1.25157 -0.8614,1.86923 -0.8453,0.61766 -2.2919,0.61766 -1.3653,0 -2.6982,-0.47137 -1.3166,-0.47137 -2.4544,-1.15405 -1.1378,-0.68267 -1.983,-1.31659 l -3.137,5.26636 q 0.8127,0.69893 2.2593,1.51164 1.4629,0.81271 3.4459,1.39787 1.9992,0.56889 4.3886,0.56889 z"
         id="text2-7"
         aria-label="L     A      B      S" /><path
         id="path12-6"
         style="font-variation-settings:normal;display:inline;vector-effect:none;fill:#ffffff;fill-opacity:1;stroke-width:1.05984;stroke-linecap:round;stroke-linejoin:round;stroke-miterlimit:4;stroke-dasharray:none;stroke-dashoffset:0;stroke-opacity:1;-inkscape-stroke:none;paint-order:stroke fill markers;stop-color:#000000"
         d="m 943.0705,84.92527 c 0,27.21762 38.69268,52.24606 69.1686,24.19417 L 999.75098,96.69849 c -14.3036,17.42465 -41.6209,3.46514 -36.289,-19.39756 5.3319,-22.8627 26.46,-21.35999 35.796,-11.43053 L 1011.7461,53.44945 C 993.97048,35.22052 943.0705,36.40719 943.0705,84.92527 Z"
         sodipodi:nodetypes="scczccs" /></g></g></svg>
