<?xml version="1.0" encoding="UTF-8" standalone="no"?>
<!-- Created with Inkscape (http://www.inkscape.org/) -->

<svg
   width="548.21667mm"
   height="209.02083mm"
   viewBox="0 0 548.21667 209.02083"
   version="1.1"
   id="svg1"
   xml:space="preserve"
   inkscape:version="1.4 (e7c3feb, 2024-10-09)"
   sodipodi:docname="uac-labs-logo-drawing-master-v3.svg"
   inkscape:export-batch-path="SVG"
   inkscape:export-batch-name="uac-labs-logo-drawing"
   xmlns:inkscape="http://www.inkscape.org/namespaces/inkscape"
   xmlns:sodipodi="http://sodipodi.sourceforge.net/DTD/sodipodi-0.dtd"
   xmlns:xlink="http://www.w3.org/1999/xlink"
   xmlns="http://www.w3.org/2000/svg"
   xmlns:svg="http://www.w3.org/2000/svg"><sodipodi:namedview
     id="namedview1"
     pagecolor="#bdbdbd"
     bordercolor="#000000"
     borderopacity="0.25"
     inkscape:showpageshadow="2"
     inkscape:pageopacity="0.0"
     inkscape:pagecheckerboard="0"
     inkscape:deskcolor="#d1d1d1"
     inkscape:document-units="mm"
     inkscape:zoom="0.087"
     inkscape:cx="4712.6437"
     inkscape:cy="580.45977"
     inkscape:window-width="983"
     inkscape:window-height="707"
     inkscape:window-x="383"
     inkscape:window-y="0"
     inkscape:window-maximized="0"
     inkscape:current-layer="layer1"
     showguides="true"
     inkscape:lockguides="false"
     showgrid="false"><inkscape:page
       x="0"
       y="0"
       width="548.21667"
       height="209.02083"
       id="page28"
       margin="0"
       bleed="0" /></sodipodi:namedview><defs
     id="defs1"><linearGradient
       id="linearGradient72"
       inkscape:collect="always"><stop
         style="stop-color:#5406fe;stop-opacity:1;"
         offset="0.06347459"
         id="stop69" /><stop
         style="stop-color:#01f4b5;stop-opacity:1;"
         offset="0.53100806"
         id="stop70" /><stop
         style="stop-color:#01f4b5;stop-opacity:1;"
         offset="0.6471141"
         id="stop71" /><stop
         style="stop-color:#0ff500;stop-opacity:1;"
         offset="1"
         id="stop72" /></linearGradient><linearGradient
       inkscape:collect="always"
       xlink:href="#linearGradient72"
       id="linearGradient81"
       gradientUnits="userSpaceOnUse"
       gradientTransform="translate(40.544611,-102.8961)"
       x1="86.177063"
       y1="98.041313"
       x2="119.25098"
       y2="101.59471" /></defs><g
     inkscape:groupmode="layer"
     id="layer4"
     inkscape:label="text"
     style="display:inline;opacity:1"><path
       id="path2"
       style="font-weight:900;font-size:83.66px;font-family:Spartan;-inkscape-font-specification:'Spartan, Heavy';fill:#000000;stroke-width:1.05984;stroke-linecap:round;stroke-linejoin:round;paint-order:stroke fill markers"
       d="m 350.42923,41.897103 -32.91392,69.229757 20.75704,0.0352 5.77568,-13.553188 h 31.68572 l 5.77513,13.553188 20.75703,-0.0352 -32.91392,-69.229757 h -6.4288 -6.0646 z m 9.46138,17.675928 9.89034,24.616321 h -19.78067 z"
       transform="scale(0.93364475,1.0710712)"
       sodipodi:nodetypes="ccccccccccccccc" /><path
       id="text1"
       style="font-weight:900;font-size:83.66px;font-family:Spartan;-inkscape-font-specification:'Spartan, Heavy';fill:#000000;stroke-width:1.17517;stroke-linecap:round;stroke-linejoin:round;paint-order:stroke fill markers"
       d="m 220.50437,44.808634 v 48.158818 c 0,19.289268 17.03328,28.173988 31.92415,28.173988 14.89087,0 31.92363,-8.88471 31.92363,-28.173988 V 44.808634 h -17.99838 v 42.852165 c 0,1.484724 1.22842,17.304891 -13.92525,17.304891 -15.15367,0 -13.92577,-15.820167 -13.92577,-17.304891 V 44.808634 Z" /><path
       style="font-weight:800;font-size:32.5084px;font-family:Spartan;-inkscape-font-specification:'Spartan Ultra-Bold';letter-spacing:-0.269875px;baseline-shift:baseline;stroke-width:0.411827;stroke-linecap:round;stroke-linejoin:round;paint-order:stroke fill markers"
       d="m 295.76867,172.12935 h 15.39273 v -5.49392 h -9.13487 v -21.32551 h -6.25786 z m 58.29342,0 h 6.7455 l 1.93425,-5.23385 h 10.17513 l 1.91799,5.23385 h 6.7455 L 370.7389,145.30992 h -5.819 z m 10.80905,-10.72777 2.95826,-7.59071 2.94201,7.59071 z m 69.95409,10.72777 h 10.27266 q 2.68194,0 4.6487,-0.91024 1.98301,-0.92649 3.05579,-2.63318 1.08903,-1.72294 1.08903,-4.11231 0,-2.74696 -1.46288,-4.4374 -1.46288,-1.69043 -4.22609,-2.14555 3.31586,-1.77171 3.31586,-5.85151 0,-3.38088 -2.21057,-5.05506 -2.19432,-1.67418 -6.04657,-1.67418 h -8.43593 z m 6.27413,-16.40049 v -5.59144 h 0.65016 q 3.70596,0 3.70596,2.74696 0,2.84448 -3.70596,2.84448 z m 0,11.55674 v -6.16034 h 1.78796 q 2.16181,0 3.28335,0.81271 1.12154,0.81271 1.12154,2.3406 0,3.00703 -4.40489,3.00703 z m 74.89534,5.36388 q 3.10455,0 5.3964,-0.9915 2.29184,-1.00776 3.54341,-2.89325 1.26783,-1.88549 1.26783,-4.53492 0,-2.29184 -0.97525,-3.78723 -0.959,-1.51164 -2.82823,-2.63318 -1.85298,-1.12154 -4.51867,-2.25934 -1.7392,-0.73143 -2.60067,-1.21906 -0.86148,-0.50388 -0.86148,-1.5279 0,-1.00776 0.79646,-1.64167 0.81271,-0.63391 2.24308,-0.63391 1.38161,0 2.82823,0.52013 1.46288,0.50388 2.63318,1.30034 l 2.53566,-4.99004 q -0.99151,-0.71519 -2.35686,-1.28408 -1.36536,-0.5689 -2.877,-0.91024 -1.49538,-0.34134 -2.9095,-0.34134 -2.71445,0 -4.76248,1.17031 -2.03177,1.15404 -3.15331,3.02328 -1.12154,1.85298 -1.12154,3.93351 0,2.45439 1.49538,4.12857 1.49539,1.65793 3.73847,2.68194 1.99927,0.91024 3.28335,1.56041 1.30033,0.65016 1.91799,1.33284 0.61766,0.68268 0.61766,1.70669 0,1.25157 -0.86147,1.86923 -0.84522,0.61766 -2.29184,0.61766 -1.36536,0 -2.6982,-0.47137 -1.31659,-0.47137 -2.45438,-1.15405 -1.1378,-0.68267 -1.98302,-1.31659 l -3.13706,5.26636 q 0.81271,0.69893 2.25934,1.51164 1.46287,0.81271 3.44589,1.39787 1.99926,0.56889 4.38863,0.56889 z"
       id="text2"
       aria-label="L     A      B      S" /><path
       id="path12"
       style="font-variation-settings:normal;opacity:1;vector-effect:none;fill:#000000;fill-opacity:1;stroke-width:1.05984;stroke-linecap:round;stroke-linejoin:round;stroke-miterlimit:4;stroke-dasharray:none;stroke-dashoffset:0;stroke-opacity:1;-inkscape-stroke:none;paint-order:stroke fill markers;stop-color:#000000;stop-opacity:1"
       d="m 384.85384,84.925272 c 0,27.217618 38.69272,52.246058 69.16858,24.194168 L 441.53429,96.69849 c -14.30353,17.42465 -41.62089,3.46514 -36.28896,-19.397559 5.33193,-22.862701 26.45994,-21.35999 35.79597,-11.430533 L 453.52942,53.449451 C 435.75384,35.220519 384.85384,36.407186 384.85384,84.925272 Z"
       sodipodi:nodetypes="scczccs" /></g><g
     inkscape:groupmode="layer"
     id="layer1"
     inkscape:label="Imagotipo 2"
     style="opacity:1"><path
       style="fill:none;fill-opacity:1;stroke:#000000;stroke-width:3.5;stroke-linecap:round;stroke-linejoin:round;stroke-miterlimit:4;stroke-dasharray:none;stroke-dashoffset:0;stroke-opacity:1;paint-order:stroke fill markers"
       d="m 103.00728,99.050876 -0.33624,72.415444 69.19453,-49.99568 z"
       id="path45"
       sodipodi:nodetypes="cccc" /><path
       style="fill:none;fill-opacity:1;stroke:#000000;stroke-width:3.5;stroke-linecap:round;stroke-linejoin:round;stroke-miterlimit:4;stroke-dasharray:none;stroke-dashoffset:0;stroke-opacity:1;paint-order:stroke fill markers"
       d="M 33.740175,121.10789 103.00728,99.050876 145.69917,40.213281"
       id="path46"
       sodipodi:nodetypes="ccc" /><circle
       style="fill:url(#linearGradient81);fill-opacity:1;stroke:#000000;stroke-width:2.5;stroke-linecap:round;stroke-linejoin:round;stroke-miterlimit:4;stroke-dasharray:none;stroke-dashoffset:0;stroke-opacity:1;paint-order:stroke fill markers"
       id="circle46"
       transform="rotate(44.335572)"
       cy="-1.9307259"
       cx="143.03624"
       r="16.085651" /><path
       id="path47"
       style="fill:#5406fe;fill-opacity:1;stroke:#000000;stroke-width:2.5;stroke-linecap:round;stroke-linejoin:round;paint-order:stroke fill markers"
       d="M 76.417463,39.802594 A 16.085651,16.085651 0 0 1 60.519474,56.073721 16.085651,16.085651 0 0 1 44.248282,40.175695 16.085651,16.085651 0 0 1 60.146469,23.904547 16.085651,16.085651 0 0 1 76.417463,39.802594 Z"
       inkscape:transform-center-y="-72.838235" /><path
       id="path48"
       style="fill:#01f4b5;fill-opacity:1;stroke:#000000;stroke-width:2.5;stroke-linecap:round;stroke-linejoin:round;paint-order:stroke fill markers"
       d="M 161.78371,40.026762 A 16.085651,16.085651 0 0 1 145.88572,56.297889 16.085651,16.085651 0 0 1 129.61453,40.399863 16.085651,16.085651 0 0 1 145.51272,24.128715 16.085651,16.085651 0 0 1 161.78371,40.026762 Z"
       inkscape:transform-center-y="-72.838235" /><path
       id="path49"
       style="fill:#0ff500;fill-opacity:1;stroke:#000000;stroke-width:2.5;stroke-linecap:round;stroke-linejoin:round;paint-order:stroke fill markers"
       d="m 187.95011,121.28413 a 16.085651,16.085651 0 0 1 -15.89799,16.27112 16.085651,16.085651 0 0 1 -16.27119,-15.89802 16.085651,16.085651 0 0 1 15.89819,-16.27115 16.085651,16.085651 0 0 1 16.27099,15.89805 z"
       inkscape:transform-center-y="-72.838235" /><path
       id="path50"
       style="fill:#0ff500;fill-opacity:1;stroke:#000000;stroke-width:2.5;stroke-linecap:round;stroke-linejoin:round;paint-order:stroke fill markers"
       d="m 118.75568,171.27975 a 16.085651,16.085651 0 0 1 -15.89809,16.27113 16.085651,16.085651 0 0 1 -16.271089,-15.89803 16.085651,16.085651 0 0 1 15.898089,-16.27114 16.085651,16.085651 0 0 1 16.27109,15.89804 z"
       inkscape:transform-center-y="-72.838235" /><path
       id="path51"
       style="fill:#01f4b5;fill-opacity:1;stroke:#000000;stroke-width:2.5;stroke-linecap:round;stroke-linejoin:round;paint-order:stroke fill markers"
       d="M 49.824719,120.92138 A 16.085651,16.085651 0 0 1 33.92663,137.19251 16.085651,16.085651 0 0 1 17.655538,121.29448 16.085651,16.085651 0 0 1 33.553626,105.02334 16.085651,16.085651 0 0 1 49.824719,120.92138 Z"
       inkscape:transform-center-y="-72.838235" /></g></svg>
